<?xml version="1.0" encoding="utf-8"?>
<!-- Generator: Adobe Illustrator 23.1.0, SVG Export Plug-In . SVG Version: 6.00 Build 0)  -->
<svg version="1.1" id="Layer_1" xmlns="http://www.w3.org/2000/svg" xmlns:xlink="http://www.w3.org/1999/xlink" x="0px" y="0px"
	 viewBox="0 0 500 500" style="enable-background:new 0 0 500 500;" xml:space="preserve">
<g transform="translate(0.000000,500.000000) scale(0.100000,-0.100000)">
	<path d="M2552.4,4802.8c-40.7-42-44.7-60.4-25-111.6c9.2-25,7.9-35.5-5.3-43.3c-34.1-21-63-81.4-55.2-115.6
		c7.9-28.9,123.5-130,231.1-203.6c15.8-10.5,69.6-51.2,118.2-89.3c116.9-89.3,164.2-109,228.5-94.6c27.6,5.3,59.1,19.7,70.9,30.2
		c18.4,15.8,27.6,17.1,48.6,5.3c14.4-7.9,70.9-15.8,124.8-15.8c119.5-1.3,182.6-27.6,233.8-99.8c19.7-27.6,47.3-55.2,63-61.7
		c19.7-9.2,42-53.8,76.2-156.3c27.6-77.5,52.5-155,56.5-170.7c10.5-47.3-26.3-86.7-115.6-124.8c-46-18.4-148.4-61.7-225.9-95.9
		c-78.8-32.8-145.8-59.1-148.4-55.2c-2.6,2.6-6.6,77.5-7.9,168.1c-2.6,174.7-18.4,246.9-67,298.1c-53.8,57.8-102.4,68.3-329.6,68.3
		h-211.4L2362,4182.9c-137.9,136.6-254.8,261.4-260,278.4c-34.1,126.1-236.4,189.1-353.3,110.3c-26.3-18.4-48.6-38.1-48.6-44.7
		c0-5.3-64.4-43.3-143.2-84.1c-109-57.8-156.3-74.9-199.6-74.9c-30.2,0-81.4-11.8-111.6-26.3l-55.2-27.6l-52.5,27.6
		c-35.5,18.4-64.4,25-86.7,18.4c-18.4-3.9-124.8-95.9-237.7-204.9C633.6,3980.6,610,3953,610,3916.2c0-65.7,53.8-106.4,134-101.1
		c13.1,0,81.4,57.8,152.3,126.1c72.2,68.3,134,124.8,137.9,124.8c14.4,0,153.7-198.3,147.1-210.1c-3.9-6.6-69.6-55.2-145.8-106.4
		c-152.3-103.8-183.9-143.2-161.5-206.2c17.1-51.2,81.4-84.1,127.4-67c61.7,23.6,430.8,287.6,459.7,328.3
		c10.5,14.4,18.4,47.3,18.4,72.2c0,31.5,7.9,51.2,26.3,61.7c13.1,9.2,36.8,34.1,49.9,56.5c17.1,26.3,61.7,59.1,127.4,93.2
		c143.2,73.5,169.4,69.6,299.4-56.5l99.8-97.2h-103.8c-74.9,0-122.1-7.9-164.2-25c-124.8-53.8-145.8-128.7-139.2-503l5.3-261.4
		l-46-11.8c-25-6.6-69.6-15.8-98.5-19.7c-148.4-25-290.2-64.4-311.3-89.3c-19.7-21-23.6-52.5-23.6-220.6
		c0-243,6.6-253.5,157.6-279.7l98.5-15.8l3.9-173.4l3.9-172l-51.2-26.3c-28.9-14.4-55.2-35.5-60.4-47.3
		c-14.4-36.8-9.2-374.3,6.6-403.2c7.9-14.4,34.1-34.1,59.1-44.7l44.7-18.4v-149.7c0-158.9-3.9-169.4-68.3-185.2
		c-70.9-18.4-82.7-47.3-86.7-225.9c-3.9-148.4-2.6-169.4,21-200.9c31.5-40.7,23.6-60.4-51.2-134c-85.4-82.7-98.5-193.1-34.1-287.6
		c36.8-55.2,119.5-103.8,177.3-103.8c84.1,0,181.2,57.8,220.6,134c23.6,46,23.6,151,0,197c-10.5,19.7-15.8,47.3-11.8,61.7
		c6.6,27.6,38.1,46,57.8,32.8c6.6-3.9,52.5-13.1,101.1-21c48.6-6.6,118.2-17.1,153.7-23.6c56.5-7.9,250.8-38.1,499.1-76.2
		c73.5-10.5,91.9-42,49.9-88c-81.4-90.6-101.1-185.2-56.5-271.9c36.8-72.2,82.7-111.6,148.4-130c109-28.9,218,18.4,269.2,119.5
		c26.3,51.2,28.9,70.9,22.3,147.1l-7.9,88l36.8,7.9c38.1,9.2,219.3,61.7,316.5,93.2c78.8,26.3,81.4,25,81.4-34.1
		c0-116.9,98.5-211.4,219.3-212.8c70.9,0,157.6,51.2,194.4,112.9c55.2,93.2,39.4,187.8-47.3,285c-47.3,53.8-49.9,103.8-5.3,151
		l32.8,35.5v1066.4V3077l-30.2,27.6c-17.1,15.8-38.1,28.9-46,28.9c-9.2,0-15.8,6.6-15.8,13.1c0,7.9,6.6,13.1,14.4,13.1
		c6.6,0,76.2,26.3,152.3,59.1c76.2,32.8,151,59.1,168.1,59.1c44.7,0,140.5,44.7,173.4,80.1c63,68.3,76.2,193.1,28.9,281.1
		c-26.3,49.9-69.6,165.5-149.7,391.4c-19.7,56.5-32.8,116.9-28.9,135.3c10.5,53.8-15.8,141.8-56.5,191.7
		c-43.3,51.2-130,89.3-208.8,89.3c-60.4,0-229.8,77.5-262.7,119.5c-13.1,17.1-52.5,46-85.4,61.7c-44.7,22.3-60.4,38.1-60.4,59.1
		c0,30.2-46,114.3-61.7,114.3c-6.6,0-145.8,9.2-312.6,19.7c-165.5,10.5-307.3,19.7-312.6,19.7
		C2595.8,4840.8,2573.5,4823.8,2552.4,4802.8z M2983.2,4599.2c2.6-2.6-7.9-43.3-23.6-90.6l-28.9-86.7l-40.7,27.6
		c-22.3,17.1-46,34.1-53.8,40.7c-6.6,5.3-48.6,36.8-91.9,70.9l-78.8,60.4l156.3-9.2C2908.4,4608.4,2980.6,4601.8,2983.2,4599.2z
		 M3206.5,4431.1c-3.9-10.5-7.9-6.6-7.9,7.9c-1.3,14.4,2.6,22.3,6.6,17.1C3209.1,4452.1,3210.4,4440.3,3206.5,4431.1z
		 M3240.6,4440.3c5.3-10.5,3.9-21-1.3-25c-5.3-3.9-11.8,5.3-11.8,19.7C3224.9,4465.2,3231.4,4467.8,3240.6,4440.3z M1936.5,4428.4
		c0-3.9-5.3-10.5-13.1-14.4c-6.6-3.9-13.1-1.3-13.1,5.3c0,7.9,6.6,14.4,13.1,14.4C1931.2,4433.7,1936.5,4431.1,1936.5,4428.4z
		 M1823.5,4387.7c-5.3-10.5-14.4-19.7-21-19.7c-7.9,0-6.6,7.9,2.6,19.7c9.2,10.5,18.4,19.7,21,19.7S1827.5,4398.2,1823.5,4387.7z
		 M3210.4,4387.7c0-10.5-5.3-19.7-13.1-19.7c-6.6,0-9.2,9.2-5.3,19.7c5.3,10.5,10.5,19.7,13.1,19.7S3210.4,4398.2,3210.4,4387.7z
		 M3240.6,4374.6c-3.9-11.8-10.5-18.4-13.1-14.4c-3.9,3.9-2.6,11.8,2.6,19.7C3241.9,4400.9,3249.8,4396.9,3240.6,4374.6z
		 M3297.1,4344.4c-22.3-21-23.6-21-6.6,6.6c9.2,15.8,19.7,26.3,23.6,22.3C3318.1,4370.7,3310.2,4357.5,3297.1,4344.4z
		 M1835.4,4348.3c-3.9-11.8-10.5-18.4-13.1-14.4c-3.9,3.9-2.6,11.8,2.6,19.7C1836.7,4374.6,1844.5,4370.7,1835.4,4348.3z
		 M3238,4331.3c-9.2-2.6-23.6,1.3-30.2,7.9c-10.5,10.5-5.3,11.8,17.1,6.6C3241.9,4340.5,3248.5,4335.2,3238,4331.3z M1903.6,4291.9
		c-3.9-3.9-14.4,0-23.6,9.2c-11.8,13.1-10.5,14.4,7.9,6.6C1901,4303.7,1907.6,4295.8,1903.6,4291.9z M3696.4,4256.4
		c-9.2-11.8-19.7-17.1-22.3-14.4c-9.2,9.2,9.2,34.1,25,34.1C3706.9,4276.1,3706.9,4268.2,3696.4,4256.4z M3722.6,4230.1
		c-9.2-11.8-19.7-17.1-22.3-14.4c-9.2,9.2,9.2,34.1,25,34.1C3733.1,4249.8,3733.1,4242,3722.6,4230.1z M3762,4218.3
		c0-3.9-5.3-10.5-13.1-14.4c-6.6-3.9-13.1-1.3-13.1,5.3c0,7.9,6.6,14.4,13.1,14.4C3756.8,4223.6,3762,4220.9,3762,4218.3z
		 M1361.2,4098.8c17.1-10.5,23.6-19.7,17.1-19.7c-32.8,1.3-73.5,57.8-70.9,101.1c0,13.1,6.6,5.3,13.1-18.4
		C1327.1,4138.2,1345.5,4110.6,1361.2,4098.8z M3696.4,4192c0-2.6-9.2-9.2-21-13.1c-10.5-3.9-15.8-2.6-11.8,5.3
		C3671.4,4197.3,3696.4,4202.6,3696.4,4192z M3745,4176.3c-3.9-3.9-15.8-5.3-25-1.3c-10.5,3.9-6.6,7.9,7.9,7.9
		C3742.3,4184.2,3750.2,4180.2,3745,4176.3z M3776.5,4140.8c-13.1-11.8-14.4-10.5-6.6,7.9c3.9,13.1,11.8,19.7,15.8,15.8
		S3785.7,4150,3776.5,4140.8z M3735.8,4152.6c0-2.6-11.8-7.9-26.3-11.8s-23.6-1.3-18.4,5.3
		C3697.7,4157.9,3735.8,4163.2,3735.8,4152.6z M1380.9,4058.1c-3.9-3.9-15.8-5.3-25-1.3c-10.5,3.9-6.6,7.9,7.9,7.9
		C1378.3,4066,1386.2,4062,1380.9,4058.1z M2862.4,3811.2l39.4-31.5l3.9-274.5c5.3-327,0-369.1-47.3-404.5
		c-31.5-23.6-53.8-25-265.3-21c-401.9,5.3-728.9,23.6-760.4,40.7c-56.5,30.2-67,85.4-67,353.3c0,269.2,11.8,324.4,70.9,353.3
		c17.1,9.2,208.8,14.4,507,14.4l479.4,1.3L2862.4,3811.2z M4011.6,3501.2c0-6.6-6.6-13.1-14.4-13.1c-6.6,0-9.2,6.6-5.3,13.1
		c3.9,7.9,10.5,13.1,14.4,13.1C4008.9,3514.4,4011.6,3509.1,4011.6,3501.2z M3467.8,2430.9c1.3-86.7,0-178.6-3.9-204.9l-5.3-47.3
		l-61.7,5.3c-34.1,3.9-130,14.4-212.8,25s-177.3,18.4-210.1,18.4c-89.3,0-93.2,6.6-89.3,126.1l3.9,102.4l144.5,36.8
		c80.1,19.7,200.9,49.9,269.2,68.3c68.3,17.1,134,31.5,144.5,30.2C3462.6,2588.5,3466.5,2559.6,3467.8,2430.9z M1897.1,2462.4
		c82.7-6.6,189.1-18.4,236.4-25c47.3-7.9,181.2-17.1,299.4-22.3l212.8-7.9v-70.9c0-77.5,5.3-74.9-110.3-57.8
		c-287.6,44.7-279.7,44.7-399.3,15.8c-165.5-39.4-417.6-93.2-434.7-93.2c-15.8,0-21,264-5.3,281.1c5.3,3.9,18.4,5.3,28.9,1.3
		C1736.8,2478.1,1814.3,2468.9,1897.1,2462.4z M3462.6,1633.6c2.6-9.2,5.3-78.8,5.3-155l-1.3-137.9l-32.8,2.6
		c-68.3,3.9-378.2,43.3-463.6,57.8c-88,15.8-89.3,17.1-85.4,55.2c3.9,38.1,7.9,40.7,141.8,76.2c76.2,21,179.9,48.6,229.8,63
		C3475.7,1657.3,3456,1653.3,3462.6,1633.6z M1916.8,1570.6c119.5-14.4,295.5-39.4,513.5-73.5c65.7-10.5,141.8-18.4,168.1-18.4
		c34.1,0,47.3-5.3,47.3-21c0-17.1-7.9-19.7-35.5-13.1c-21,3.9-116.9,17.1-214.1,28.9c-208.8,25-261.4,18.4-584.4-73.5
		c-21-6.6-59.1-14.4-81.4-19.7l-43.3-9.2v115.6v114.3l56.5-9.2C1773.6,1587.7,1852.4,1577.2,1916.8,1570.6z"/>
	<path d="M2010,3585.3c-26.3-26.3-31.5-84.1-14.4-158.9c5.3-23.6,15.8-30.2,52.5-30.2c57.8,0,77.5,34.1,68.3,115.6
		C2107.2,3595.8,2054.7,3631.2,2010,3585.3z"/>
	<path d="M2527.5,3597.1c-31.5-11.8-39.4-32.8-39.4-102.4c0-35.5,5.3-72.2,10.5-80.1c18.4-26.3,59.1-32.8,89.3-11.8
		c26.3,17.1,31.5,31.5,31.5,91.9c0,57.8-5.3,74.9-28.9,90.6C2559,3607.6,2557.7,3607.6,2527.5,3597.1z"/>
	<path d="M2142.7,3347.6c-21-19.7-6.6-57.8,34.1-88c61.7-47.3,126.1-55.2,194.4-25c70.9,31.5,95.9,59.1,84.1,95.9
		c-10.5,32.8-25,32.8-81.4-1.3c-51.2-32.8-132.6-28.9-168.1,6.6C2183.4,3358.1,2157.1,3363.3,2142.7,3347.6z"/>
</g>
</svg>
