<?xml version="1.0" encoding="utf-8"?>
<!-- Generator: Adobe Illustrator 23.1.0, SVG Export Plug-In . SVG Version: 6.00 Build 0)  -->
<svg version="1.1" id="Layer_1" xmlns="http://www.w3.org/2000/svg" xmlns:xlink="http://www.w3.org/1999/xlink" x="0px" y="0px"
	 viewBox="0 0 500 500" style="enable-background:new 0 0 500 500;" xml:space="preserve">
<style type="text/css">
	.st0{fill:#FFFFFF;stroke:#FFFFFF;stroke-miterlimit:10;}
</style>
<path class="st0" d="M360.6,500H139.4C62.4,500,0,437.6,0,360.6V139.4C0,62.4,62.4,0,139.4,0h221.1C437.6,0,500,62.4,500,139.4
	v221.1C500,437.6,437.6,500,360.6,500z"/>
<g transform="translate(0.000000,500.000000) scale(0.100000,-0.100000)">
	<path d="M2710.2,4704.1c-52.6-54.3-57.8-78.1-32.3-144.3c11.9-32.3,10.2-45.9-6.9-56c-44.1-27.2-81.5-105.3-71.4-149.5
		c10.2-37.4,159.7-168.1,298.9-263.3c20.4-13.6,90-66.2,152.9-115.5c151.2-115.5,212.3-141,295.5-122.3
		c35.7,6.9,76.4,25.5,91.7,39.1c23.8,20.4,35.7,22.1,62.8,6.9c18.6-10.2,91.7-20.4,161.4-20.4c154.5-1.7,236.1-35.7,302.3-129.1
		c25.5-35.7,61.2-71.4,81.5-79.8c25.5-11.9,54.3-69.6,98.5-202.1c35.7-100.2,67.9-200.4,73.1-220.7c13.6-61.2-34-112.1-149.5-161.4
		c-59.5-23.8-191.9-79.8-292.1-124c-101.9-42.4-188.5-76.4-191.9-71.4c-3.4,3.4-8.5,100.2-10.2,217.4
		c-3.4,225.9-23.8,319.3-86.6,385.5c-69.6,74.7-132.4,88.3-426.2,88.3h-273.4L2464,3902.4c-178.3,176.6-329.5,338-336.2,360
		c-44.1,163.1-305.7,244.5-456.9,142.6c-34-23.8-62.8-49.3-62.8-57.8c0-6.9-83.3-56-185.2-108.8c-141-74.7-202.1-96.9-258.1-96.9
		c-39.1,0-105.3-15.3-144.3-34L949,4072l-67.9,35.7c-45.9,23.8-83.3,32.3-112.1,23.8c-23.8-5-161.4-124-307.4-265
		c-232.8-225.7-263.3-261.4-263.3-308.9c0-85,69.6-137.6,173.3-130.7c16.9,0,105.3,74.7,197,163.1
		c93.4,88.3,173.3,161.4,178.3,161.4c18.6,0,198.8-256.4,190.2-271.7c-5-8.5-90-71.4-188.5-137.6
		c-197-134.2-237.8-185.2-208.8-266.7c22.1-66.2,105.3-108.8,164.8-86.6c79.8,30.5,557.1,371.9,594.5,424.6
		c13.6,18.6,23.8,61.2,23.8,93.4c0,40.7,10.2,66.2,34,79.8c16.9,11.9,47.6,44.1,64.5,73.1c22.1,34,79.8,76.4,164.8,120.5
		c185.2,95,219.1,90,387.2-73.1l129.1-125.7H1968c-96.9,0-157.9-10.2-212.3-32.3c-161.4-69.6-188.5-166.4-180-650.5l6.9-338
		l-59.5-15.3c-32.3-8.5-90-20.4-127.4-25.5c-191.9-32.3-375.3-83.3-402.6-115.5c-25.5-27.2-30.5-67.9-30.5-285.3
		c0-314.2,8.5-327.8,203.8-361.7l127.4-20.4l5-224.2l5-222.4l-66.2-34c-37.4-18.6-71.4-45.9-78.1-61.2
		c-18.6-47.6-11.9-484,8.5-521.4c10.2-18.6,44.1-44.1,76.4-57.8l57.8-23.8V398.3c0-205.5-5-219.1-88.3-239.5
		c-91.7-23.8-106.9-61.2-112.1-292.1c-5-191.9-3.4-219.1,27.2-259.8c40.7-52.6,30.5-78.1-66.2-173.3
		c-110.4-106.9-127.4-249.7-44.1-371.9c47.6-71.4,154.5-134.2,229.3-134.2c108.8,0,234.3,74.7,285.3,173.3
		c30.5,59.5,30.5,195.3,0,254.8c-13.6,25.5-20.4,61.2-15.3,79.8c8.5,35.7,49.3,59.5,74.7,42.4c8.5-5,67.9-16.9,130.7-27.2
		c62.8-8.5,152.9-22.1,198.8-30.5c73.1-10.2,324.3-49.3,645.4-98.5c95-13.6,118.8-54.3,64.5-113.8
		c-105.3-117.2-130.7-239.5-73.1-351.6c47.6-93.4,106.9-144.3,191.9-168.1c141-37.4,281.9,23.8,348.1,154.5
		c34,66.2,37.4,91.7,28.8,190.2l-10.2,113.8l47.6,10.2c49.3,11.9,283.6,79.8,409.3,120.5c101.9,34,105.3,32.3,105.3-44.1
		c0-151.2,127.4-273.4,283.6-275.2c91.7,0,203.8,66.2,251.4,146c71.4,120.5,51,242.9-61.2,368.6c-61.2,69.6-64.5,134.2-6.9,195.3
		l42.4,45.9v1379v1379.6l-39.1,35.7c-22.1,20.4-49.3,37.4-59.5,37.4c-11.9,0-20.4,8.5-20.4,16.9c0,10.2,8.5,16.9,18.6,16.9
		c8.5,0,98.5,34,197,76.4c98.5,42.4,195.3,76.4,217.4,76.4c57.8,0,181.7,57.8,224.2,103.6c81.5,88.3,98.5,249.7,37.4,363.5
		c-34,64.5-90,214-193.6,506.1c-25.5,73.1-42.4,151.2-37.4,175c13.6,69.6-20.4,183.4-73.1,247.9c-56,66.2-168.1,115.5-270,115.5
		c-78.1,0-297.2,100.2-339.7,154.5c-16.9,22.1-67.9,59.5-110.4,79.8c-57.8,28.8-78.1,49.3-78.1,76.4c0,39.1-59.5,147.8-79.8,147.8
		c-8.5,0-188.5,11.9-404.2,25.5c-214,13.6-397.4,25.5-404.2,25.5C2766.3,4753.2,2737.5,4731.2,2710.2,4704.1z M3267.3,4440.8
		c3.4-3.4-10.2-56-30.5-117.2l-37.4-112.1l-52.6,35.7c-28.8,22.1-59.5,44.1-69.6,52.6c-8.5,6.9-62.8,47.6-118.8,91.7l-101.9,78.1
		l202.1-11.9C3170.6,4452.7,3263.9,4444.1,3267.3,4440.8z M3556.1,4223.4c-5-13.6-10.2-8.5-10.2,10.2c-1.7,18.6,3.4,28.8,8.5,22.1
		C3559.4,4250.6,3561.1,4235.3,3556.1,4223.4z M3600.2,4235.3c6.9-13.6,5-27.2-1.7-32.3c-6.9-5-15.3,6.9-15.3,25.5
		C3579.9,4267.5,3588.3,4270.9,3600.2,4235.3z M1913.7,4219.9c0-5-6.9-13.6-16.9-18.6c-8.5-5-16.9-1.7-16.9,6.9
		c0,10.2,8.5,18.6,16.9,18.6C1906.9,4226.8,1913.7,4223.4,1913.7,4219.9z M1767.6,4167.3c-6.9-13.6-18.6-25.5-27.2-25.5
		c-10.2,0-8.5,10.2,3.4,25.5c11.9,13.6,23.8,25.5,27.2,25.5C1774.3,4192.8,1772.8,4180.9,1767.6,4167.3z M3561.1,4167.3
		c0-13.6-6.9-25.5-16.9-25.5c-8.5,0-11.9,11.9-6.9,25.5c6.9,13.6,13.6,25.5,16.9,25.5S3561.1,4180.9,3561.1,4167.3z M3600.2,4150.3
		c-5-15.3-13.6-23.8-16.9-18.6c-5,5-3.4,15.3,3.4,25.5C3601.8,4184.3,3612.1,4179.2,3600.2,4150.3z M3673.2,4111.3
		c-28.8-27.2-30.5-27.2-8.5,8.5c11.9,20.4,25.5,34,30.5,28.8C3700.4,4145.3,3690.2,4128.2,3673.2,4111.3z M1783,4116.3
		c-5-15.3-13.6-23.8-16.9-18.6c-5,5-3.4,15.3,3.4,25.5C1784.7,4150.3,1794.8,4145.3,1783,4116.3z M3596.8,4094.3
		c-11.9-3.4-30.5,1.7-39.1,10.2c-13.6,13.6-6.9,15.3,22.1,8.5C3601.8,4106.2,3610.4,4099.4,3596.8,4094.3z M1871.2,4043.4
		c-5-5-18.6,0-30.5,11.9c-15.3,16.9-13.6,18.6,10.2,8.5C1867.8,4058.6,1876.4,4048.4,1871.2,4043.4z M4189.6,3997.5
		c-11.9-15.3-25.5-22.1-28.8-18.6c-11.9,11.9,11.9,44.1,32.3,44.1C4203.2,4023,4203.2,4012.7,4189.6,3997.5z M4223.5,3963.5
		c-11.9-15.3-25.5-22.1-28.8-18.6c-11.9,11.9,11.9,44.1,32.3,44.1C4237.1,3988.9,4237.1,3978.9,4223.5,3963.5z M4274.4,3948.2
		c0-5-6.9-13.6-16.9-18.6c-8.5-5-16.9-1.7-16.9,6.9c0,10.2,8.5,18.6,16.9,18.6C4267.7,3955.1,4274.4,3951.6,4274.4,3948.2z
		 M1169.8,3793.7c22.1-13.6,30.5-25.5,22.1-25.5c-42.4,1.7-95,74.7-91.7,130.7c0,16.9,8.5,6.9,16.9-23.8
		C1125.7,3844.6,1149.5,3808.9,1169.8,3793.7z M4189.6,3914.2c0-3.4-11.9-11.9-27.2-16.9c-13.6-5-20.4-3.4-15.3,6.9
		C4157.3,3921.1,4189.6,3927.9,4189.6,3914.2z M4252.4,3893.9c-5-5-20.4-6.9-32.3-1.7c-13.6,5-8.5,10.2,10.2,10.2
		C4249,3904.1,4259.2,3898.9,4252.4,3893.9z M4293.2,3848c-16.9-15.3-18.6-13.6-8.5,10.2c5,16.9,15.3,25.5,20.4,20.4
		S4305.1,3859.9,4293.2,3848z M4240.5,3863.2c0-3.4-15.3-10.2-34-15.3s-30.5-1.7-23.8,6.9C4191.3,3870.1,4240.5,3877,4240.5,3863.2z
		 M1195.2,3741c-5-5-20.4-6.9-32.3-1.7c-13.6,5-8.5,10.2,10.2,10.2C1191.9,3751.3,1202.1,3746.1,1195.2,3741z M3111.1,3421.8
		l51-40.7l5-355c6.9-422.9,0-477.3-61.2-523.1c-40.7-30.5-69.6-32.3-343.1-27.2c-519.7,6.9-942.6,30.5-983.3,52.6
		c-73.1,39.1-86.6,110.4-86.6,456.9c0,348.1,15.3,419.5,91.7,456.9c22.1,11.9,270,18.6,655.6,18.6l619.9,1.7L3111.1,3421.8z
		 M4597.2,3020.9c0-8.5-8.5-16.9-18.6-16.9c-8.5,0-11.9,8.5-6.9,16.9c5,10.2,13.6,16.9,18.6,16.9
		C4593.7,3037.9,4597.2,3031.1,4597.2,3020.9z M3894,1636.8c1.7-112.1,0-231-5-265l-6.9-61.2l-79.8,6.9
		c-44.1,5-168.1,18.6-275.2,32.3c-107.1,13.7-229.3,23.8-271.7,23.8c-115.5,0-120.5,8.5-115.5,163.1l5,132.4l186.9,47.6
		c103.6,25.5,259.8,64.5,348.1,88.3c88.3,22.1,173.3,40.7,186.9,39.1C3887.3,1840.6,3892.3,1803.2,3894,1636.8z M1862.8,1677.5
		c106.9-8.5,244.5-23.8,305.7-32.3c61.2-10.2,234.3-22.1,387.2-28.8l275.2-10.2v-91.7c0-100.2,6.9-96.9-142.6-74.7
		c-371.9,57.8-361.7,57.8-516.4,20.4c-214-51-540-120.5-562.1-120.5c-20.4,0-27.2,341.4-6.9,363.5c6.9,5,23.8,6.9,37.4,1.7
		C1655.5,1697.8,1755.7,1685.9,1862.8,1677.5z M3887.3,605.7c3.4-11.9,6.9-101.9,6.9-200.4l-1.7-178.3l-42.4,3.4
		c-88.3,5-489.1,56-599.5,74.7c-113.8,20.4-115.5,22.1-110.4,71.4c5,49.3,10.2,52.6,183.4,98.5c98.5,27.2,232.6,62.8,297.2,81.5
		C3904.2,636.4,3878.7,631.2,3887.3,605.7z M1888.3,524.3c154.5-18.6,382.1-51,664-95c85-13.6,183.4-23.8,217.4-23.8
		c44.1,0,61.2-6.9,61.2-27.2c0-22.1-10.2-25.5-45.9-16.9c-27.2,5-151.2,22.1-276.9,37.4c-270,32.3-338,23.8-755.7-95
		c-27.2-8.5-76.4-18.6-105.3-25.5l-56-11.9v149.5v147.8l73.1-11.9C1703.1,546.4,1805,532.8,1888.3,524.3z"/>
	<path d="M2008.8,3129.6c-34-34-40.7-108.8-18.6-205.5c6.9-30.5,20.4-39.1,67.9-39.1c74.7,0,100.2,44.1,88.3,149.5
		C2134.5,3143.2,2066.6,3189,2008.8,3129.6z"/>
	<path d="M2678,3144.9c-40.7-15.3-51-42.4-51-132.4c0-45.9,6.9-93.4,13.6-103.6c23.8-34,76.4-42.4,115.5-15.3
		c34,22.1,40.7,40.7,40.7,118.8c0,74.7-6.9,96.9-37.4,117.2C2718.7,3158.5,2717.1,3158.5,2678,3144.9z"/>
	<path d="M2180.4,2822.2c-27.2-25.5-8.5-74.7,44.1-113.8c79.8-61.2,163.1-71.4,251.4-32.3c91.7,40.7,124,76.4,108.8,124
		c-13.6,42.4-32.3,42.4-105.3-1.7c-66.2-42.4-171.5-37.4-217.4,8.5C2233,2835.8,2199,2842.5,2180.4,2822.2z"/>
</g>
</svg>
