<?xml version="1.0" standalone="no"?>
<!DOCTYPE svg PUBLIC "-//W3C//DTD SVG 20010904//EN"
 "http://www.w3.org/TR/2001/REC-SVG-20010904/DTD/svg10.dtd">
<svg version="1.0" xmlns="http://www.w3.org/2000/svg"
 width="500.000000pt" height="500.000000pt" viewBox="0 0 500.000000 500.000000"
 preserveAspectRatio="xMidYMid meet">

<g transform="translate(0.000000,500.000000) scale(0.100000,-0.100000)"
fill="#000000" stroke="none">
<path d="M2519 4261 c-31 -32 -34 -46 -19 -85 7 -19 6 -27 -4 -33 -26 -16 -48
-62 -42 -88 6 -22 94 -99 176 -155 12 -8 53 -39 90 -68 89 -68 125 -83 174
-72 21 4 45 15 54 23 14 12 21 13 37 4 11 -6 54 -12 95 -12 91 -1 139 -21 178
-76 15 -21 36 -42 48 -47 15 -7 32 -41 58 -119 21 -59 40 -118 43 -130 8 -36
-20 -66 -88 -95 -35 -14 -113 -47 -172 -73 -60 -25 -111 -45 -113 -42 -2 2 -5
59 -6 128 -2 133 -14 188 -51 227 -41 44 -78 52 -251 52 l-161 0 -191 189
c-105 104 -194 199 -198 212 -26 96 -180 144 -269 84 -20 -14 -37 -29 -37 -34
0 -4 -49 -33 -109 -64 -83 -44 -119 -57 -152 -57 -23 0 -62 -9 -85 -20 l-42
-21 -40 21 c-27 14 -49 19 -66 14 -14 -3 -95 -73 -181 -156 -137 -133 -155
-154 -155 -182 0 -50 41 -81 102 -77 10 0 62 44 116 96 55 52 102 95 105 95
11 0 117 -151 112 -160 -3 -5 -53 -42 -111 -81 -116 -79 -140 -109 -123 -157
13 -39 62 -64 97 -51 47 18 328 219 350 250 8 11 14 36 14 55 0 24 6 39 20 47
10 7 28 26 38 43 13 20 47 45 97 71 109 56 129 53 228 -43 l76 -74 -79 0 c-57
0 -93 -6 -125 -19 -95 -41 -111 -98 -106 -383 l4 -199 -35 -9 c-19 -5 -53 -12
-75 -15 -113 -19 -221 -49 -237 -68 -15 -16 -18 -40 -18 -168 0 -185 5 -193
120 -213 l75 -12 3 -132 3 -131 -39 -20 c-22 -11 -42 -27 -46 -36 -11 -28 -7
-285 5 -307 6 -11 26 -26 45 -34 l34 -14 0 -114 c0 -121 -3 -129 -52 -141 -54
-14 -63 -36 -66 -172 -3 -113 -2 -129 16 -153 24 -31 18 -46 -39 -102 -65 -63
-75 -147 -26 -219 28 -42 91 -79 135 -79 64 0 138 44 168 102 18 35 18 115 0
150 -8 15 -12 36 -9 47 5 21 29 35 44 25 5 -3 40 -10 77 -16 37 -5 90 -13 117
-18 43 -6 191 -29 380 -58 56 -8 70 -32 38 -67 -62 -69 -77 -141 -43 -207 28
-55 63 -85 113 -99 83 -22 166 14 205 91 20 39 22 54 17 112 l-6 67 28 6 c29
7 167 47 241 71 60 20 62 19 62 -26 0 -89 75 -161 167 -162 54 0 120 39 148
86 42 71 30 143 -36 217 -36 41 -38 79 -4 115 l25 27 0 812 0 812 -23 21 c-13
12 -29 22 -35 22 -7 0 -12 5 -12 10 0 6 5 10 11 10 5 0 58 20 116 45 58 25
115 45 128 45 34 0 107 34 132 61 48 52 58 147 22 214 -20 38 -53 126 -114
298 -15 43 -25 89 -22 103 8 41 -12 108 -43 146 -33 39 -99 68 -159 68 -46 0
-175 59 -200 91 -10 13 -40 35 -65 47 -34 17 -46 29 -46 45 0 23 -35 87 -47
87 -5 0 -111 7 -238 15 -126 8 -234 15 -238 15 -5 0 -22 -13 -38 -29z m328
-155 c2 -2 -6 -33 -18 -69 l-22 -66 -31 21 c-17 13 -35 26 -41 31 -5 4 -37 28
-70 54 l-60 46 119 -7 c66 -3 121 -8 123 -10z m170 -128 c-3 -8 -6 -5 -6 6 -1
11 2 17 5 13 3 -3 4 -12 1 -19z m26 7 c4 -8 3 -16 -1 -19 -4 -3 -9 4 -9 15 -2
23 3 25 10 4z m-993 -9 c0 -3 -4 -8 -10 -11 -5 -3 -10 -1 -10 4 0 6 5 11 10
11 6 0 10 -2 10 -4z m-86 -31 c-4 -8 -11 -15 -16 -15 -6 0 -5 6 2 15 7 8 14
15 16 15 2 0 1 -7 -2 -15z m1056 0 c0 -8 -4 -15 -10 -15 -5 0 -7 7 -4 15 4 8
8 15 10 15 2 0 4 -7 4 -15z m23 -10 c-3 -9 -8 -14 -10 -11 -3 3 -2 9 2 15 9
16 15 13 8 -4z m43 -23 c-17 -16 -18 -16 -5 5 7 12 15 20 18 17 3 -2 -3 -12
-13 -22z m-1113 3 c-3 -9 -8 -14 -10 -11 -3 3 -2 9 2 15 9 16 15 13 8 -4z
m1068 -13 c-7 -2 -18 1 -23 6 -8 8 -4 9 13 5 13 -4 18 -8 10 -11z m-1016 -30
c-3 -3 -11 0 -18 7 -9 10 -8 11 6 5 10 -3 15 -9 12 -12z m1365 -27 c-7 -9 -15
-13 -17 -11 -7 7 7 26 19 26 6 0 6 -6 -2 -15z m20 -20 c-7 -9 -15 -13 -17 -11
-7 7 7 26 19 26 6 0 6 -6 -2 -15z m30 -9 c0 -3 -4 -8 -10 -11 -5 -3 -10 -1
-10 4 0 6 5 11 10 11 6 0 10 -2 10 -4z m-1828 -91 c13 -8 18 -15 13 -15 -25 1
-56 44 -54 77 0 10 5 4 10 -14 5 -18 19 -39 31 -48z m1778 71 c0 -2 -7 -7 -16
-10 -8 -3 -12 -2 -9 4 6 10 25 14 25 6z m37 -12 c-3 -3 -12 -4 -19 -1 -8 3 -5
6 6 6 11 1 17 -2 13 -5z m24 -27 c-10 -9 -11 -8 -5 6 3 10 9 15 12 12 3 -3 0
-11 -7 -18z m-31 9 c0 -2 -9 -6 -20 -9 -11 -3 -18 -1 -14 4 5 9 34 13 34 5z
m-1793 -72 c-3 -3 -12 -4 -19 -1 -8 3 -5 6 6 6 11 1 17 -2 13 -5z m1128 -188
l30 -24 3 -209 c4 -249 0 -281 -36 -308 -24 -18 -41 -19 -202 -16 -306 4 -555
18 -579 31 -43 23 -51 65 -51 269 0 205 9 247 54 269 13 7 159 11 386 11 l365
1 30 -24z m875 -236 c0 -5 -5 -10 -11 -10 -5 0 -7 5 -4 10 3 6 8 10 11 10 2 0
4 -4 4 -10z m-414 -815 c1 -66 0 -136 -3 -156 l-4 -36 -47 4 c-26 3 -99 11
-162 19 -63 8 -135 14 -160 14 -68 0 -71 5 -68 96 l3 78 110 28 c61 15 153 38
205 52 52 13 102 24 110 23 12 -2 15 -24 16 -122z m-1196 24 c63 -5 144 -14
180 -19 36 -6 138 -13 228 -17 l162 -6 0 -54 c0 -59 4 -57 -84 -44 -219 34
-213 34 -304 12 -126 -30 -318 -71 -331 -71 -12 0 -16 201 -4 214 4 3 14 4 22
1 9 -4 68 -11 131 -16z m1192 -631 c2 -7 4 -60 4 -118 l-1 -105 -25 2 c-52 3
-288 33 -353 44 -67 12 -68 13 -65 42 3 29 6 31 108 58 58 16 137 37 175 48
167 47 152 44 157 29z m-1177 -48 c91 -11 225 -30 391 -56 50 -8 108 -14 128
-14 26 0 36 -4 36 -16 0 -13 -6 -15 -27 -10 -16 3 -89 13 -163 22 -159 19
-199 14 -445 -56 -16 -5 -45 -11 -62 -15 l-33 -7 0 88 0 87 43 -7 c23 -3 83
-11 132 -16z"/>
<path d="M2106 3334 c-20 -20 -24 -64 -11 -121 4 -18 12 -23 40 -23 44 0 59
26 52 88 -7 64 -47 91 -81 56z"/>
<path d="M2500 3343 c-24 -9 -30 -25 -30 -78 0 -27 4 -55 8 -61 14 -20 45 -25
68 -9 20 13 24 24 24 70 0 44 -4 57 -22 69 -24 17 -25 17 -48 9z"/>
<path d="M2207 3153 c-16 -15 -5 -44 26 -67 47 -36 96 -42 148 -19 54 24 73
45 64 73 -8 25 -19 25 -62 -1 -39 -25 -101 -22 -128 5 -17 17 -37 21 -48 9z"/>
</g>
</svg>
